<?xml version="1.0" encoding="UTF-8" standalone="no" ?>
<!DOCTYPE svg PUBLIC "-//W3C//DTD SVG 1.1//EN" "http://www.w3.org/Graphics/SVG/1.1/DTD/svg11.dtd">
<svg xmlns="http://www.w3.org/2000/svg" xmlns:xlink="http://www.w3.org/1999/xlink" version="1.1" width="500" height="500" viewBox="0 0 500 500" xml:space="preserve">
<defs>
</defs>
<g transform="matrix(0.96 0 0 0.96 250 274.45)" id="iQtU-jBxJDwHyZZI8dLBu"  >
<path style="stroke: none; stroke-width: 1; stroke-dasharray: none; stroke-linecap: butt; stroke-dashoffset: 0; stroke-linejoin: miter; stroke-miterlimit: 4; fill: rgb(0,255,204); fill-rule: nonzero; opacity: 1;" vector-effect="non-scaling-stroke"  transform=" translate(-256, -281.6)" d="M 102.4 76.8 L 102.4 102.4 L 409.6 102.4 C 423.70000000000005 102.4 435.20000000000005 113.9 435.20000000000005 128 L 435.20000000000005 435.2 C 435.20000000000005 449.3 423.70000000000005 460.8 409.6 460.8 L 102.4 460.8 C 88.30000000000001 460.8 76.80000000000001 449.3 76.80000000000001 435.2 L 76.80000000000001 128 C 76.80000000000001 113.9 88.30000000000001 102.4 102.4 102.4 L 102.4 76.8 L 102.4 51.2 C 60 51.2 25.6 85.6 25.6 128 L 25.6 435.2 C 25.6 477.59999999999997 60 512 102.4 512 L 409.6 512 C 452 512 486.40000000000003 477.6 486.40000000000003 435.2 L 486.40000000000003 128 C 486.40000000000003 85.6 452.00000000000006 51.2 409.6 51.2 L 102.4 51.2 L 102.4 76.8 z" stroke-linecap="round" />
</g>
<g transform="matrix(0.96 0 0 0.96 347.81 78.84)" id="XUWiyuOW4zxS03qaAXP2L"  >
<path style="stroke: none; stroke-width: 1; stroke-dasharray: none; stroke-linecap: butt; stroke-dashoffset: 0; stroke-linejoin: miter; stroke-miterlimit: 4; fill: rgb(0,255,204); fill-rule: nonzero; opacity: 1;" vector-effect="non-scaling-stroke"  transform=" translate(-358.4, -76.8)" d="M 332.8 25.6 L 332.8 128 C 332.8 142.1 344.3 153.6 358.40000000000003 153.6 C 372.50000000000006 153.6 384 142.1 384 128 L 384 25.6 C 384 11.5 372.5 0 358.4 0 C 344.29999999999995 0 332.8 11.5 332.8 25.6" stroke-linecap="round" />
</g>
<g transform="matrix(0.96 0 0 0.96 152.19 78.84)" id="Z02a_HTTMfm5PlXRIoQww"  >
<path style="stroke: none; stroke-width: 1; stroke-dasharray: none; stroke-linecap: butt; stroke-dashoffset: 0; stroke-linejoin: miter; stroke-miterlimit: 4; fill: rgb(0,255,204); fill-rule: nonzero; opacity: 1;" vector-effect="non-scaling-stroke"  transform=" translate(-153.6, -76.8)" d="M 128 25.6 L 128 128 C 128 142.1 139.5 153.6 153.6 153.6 C 167.7 153.6 179.2 142.1 179.2 128 L 179.2 25.6 C 179.2 11.500000000000002 167.7 0 153.6 0 C 139.5 0 128 11.5 128 25.6" stroke-linecap="round" />
</g>
<g transform="matrix(0.96 0 0 0.96 250 225.55)" id="uvBS06IkGCj5oi7Tdw1Ud"  >
<path style="stroke: none; stroke-width: 1; stroke-dasharray: none; stroke-linecap: butt; stroke-dashoffset: 0; stroke-linejoin: miter; stroke-miterlimit: 4; fill: rgb(0,255,204); fill-rule: nonzero; opacity: 1;" vector-effect="non-scaling-stroke"  transform=" translate(-256, -230.4)" d="M 51.2 256 L 460.8 256 C 474.90000000000003 256 486.40000000000003 244.5 486.40000000000003 230.4 C 486.40000000000003 216.3 474.90000000000003 204.8 460.8 204.8 L 51.2 204.8 C 37.1 204.8 25.6 216.3 25.6 230.4 C 25.6 244.5 37.1 256 51.2 256" stroke-linecap="round" />
</g>
<g transform="matrix(0.96 0 0 0.96 176.65 347.81)" id="FMbg-K-uN_7UEEzCR_X9B"  >
<path style="stroke: none; stroke-width: 1; stroke-dasharray: none; stroke-linecap: butt; stroke-dashoffset: 0; stroke-linejoin: miter; stroke-miterlimit: 4; fill: rgb(0,255,204); fill-rule: nonzero; opacity: 1;" vector-effect="non-scaling-stroke"  transform=" translate(-179.2, -358.4)" d="M 153.6 332.8 L 153.6 358.40000000000003 L 179.2 358.40000000000003 L 179.2 332.8 L 153.6 332.8 L 153.6 358.40000000000003 L 153.6 332.8 L 128 332.8 L 128 384 C 128 390.7 130.7 397.3 135.5 402.1 C 140.3 406.90000000000003 146.9 409.6 153.6 409.6 L 204.8 409.6 C 211.5 409.6 218.10000000000002 406.90000000000003 222.9 402.1 C 227.70000000000002 397.3 230.4 390.70000000000005 230.4 384 L 230.4 332.8 C 230.4 326.1 227.70000000000002 319.5 222.9 314.7 C 218.1 309.9 211.5 307.2 204.8 307.2 L 153.60000000000002 307.2 C 146.90000000000003 307.2 140.3 309.9 135.50000000000003 314.7 C 130.70000000000002 319.5 128.00000000000003 326.09999999999997 128.00000000000003 332.8 L 153.6 332.8 z" stroke-linecap="round" />
</g>
</svg>